# xmcd
# 
# Track frame offsets:
#     150
#     19457
#     35965
#     49922
#     65292
#     80685
#     95290
#     111972
#     129672
#     143775
#     162982
#     175745
# 
# Disc length: 2552
# 
# Revision: 2
# Processed by: cddbd v1.5.2PL0 Copyright (c) Steve Scherf et al.
# Submitted via: BonkEnc v1.0rc1
# 
DISCID=aa09f60c
DTITLE=Various Artist - Deutsche Country-Hits für unterwegs CD 2
DYEAR=1991
DGENRE=Country
TTITLE0=Jonny Hill - Hallo Teddybär
TTITLE1=Linda Feller - Warum kann ich nicht vergessen
TTITLE2=Greyhounds - Locker vom Hocker
TTITLE3=Truck Riders - Frei sein
TTITLE4=Bruce Low - Es hängt ein Pferdehalfter an der Wand
TTITLE5=Linda Feller - Appartement 94
TTITLE6=Greyhounds - San Antonio Lady
TTITLE7=Max Zwo - Nachts, mit dir allein
TTITLE8=Jonny Hill - Hallo John Wayne
TTITLE9=Truck Riders - Tennessee
TTITLE10=Bruce Low - Geisterreiter
TTITLE11=Max Zwo - Servus Bayern
EXTD=
EXTT0=
EXTT1=
EXTT2=
EXTT3=
EXTT4=
EXTT5=
EXTT6=
EXTT7=
EXTT8=
EXTT9=
EXTT10=
EXTT11=
PLAYORDER=
